<svg xmlns="http://www.w3.org/2000/svg" width="816.452" height="82.142" viewBox="0 0 816.452 82.142">
  <g id="Group_33" data-name="Group 33" transform="translate(-1529.626 -912.587)">
    <path id="Path_56" data-name="Path 56" d="M1917.551,985.839a263.733,263.733,0,0,0,26.492,2.788,232,232,0,0,0,44.259-1.971" fill="none" stroke="#5667eb" stroke-miterlimit="10" stroke-width="2"/>
    <g id="Group_32" data-name="Group 32">
      <path id="Path_57" data-name="Path 57" d="M2281.247,947.96c15.24,9.413,30.781,19.782,64.717,23.685" fill="none" stroke="#5667eb" stroke-miterlimit="10" stroke-width="2"/>
      <path id="Path_58" data-name="Path 58" d="M2061.782,965.2c25.1-10.111,49.444-21.154,77.43-28.1" fill="none" stroke="#5667eb" stroke-miterlimit="10" stroke-width="2"/>
      <path id="Path_59" data-name="Path 59" d="M1824.772,945.71c18.7,7.793,32.669,17.251,48.9,25.332" fill="none" stroke="#5667eb" stroke-miterlimit="10" stroke-width="2"/>
      <path id="Path_60" data-name="Path 60" d="M1660.927,940.6c26.5-5.482,52.615-9.877,79.139-10.025" fill="none" stroke="#5667eb" stroke-miterlimit="10" stroke-width="2"/>
      <path id="Path_61" data-name="Path 61" d="M1452.619,974.756c21.944-1.18,30.277-8.5,52.62-15.545" transform="translate(77.06)" fill="none" stroke="#5667eb" stroke-miterlimit="10" stroke-width="2"/>
      <g id="Group_29" data-name="Group 29">
        <g id="Group_22" data-name="Group 22">
          <g id="Group_21" data-name="Group 21">
            <path id="Path_62" data-name="Path 62" d="M2158.168,941.488c-.748.129-3.355.344-6.705.92-2.7.465-5.261,1.14-6.009,1.269-.2.034-.277-.052-.378-.637s-.053-.7.137-.761l1.392-.474c.314-.121.368-.2.311-.522l-3.394-19.705c-.055-.325-.131-.379-.467-.388l-1.471.017c-.2,0-.282-.086-.383-.671s-.053-.7.143-.726c.748-.129,4.169-.483,10.119-1.508l.683-.118c3.544-.61,8.355-1.639,10.761-2.054.651-.112.765-.032.877.619a62.172,62.172,0,0,1,.8,7.561c.012.266-.074.348-.822.477s-.857.081-1-.161c-1.315-2.385-1.759-3.213-2.837-5a1.106,1.106,0,0,0-1.251-.655c-1.665.052-5.06.37-6.295.582l-.13.022c-.325.057-.379.133-.323.458l1.618,9.4,2.406-.415c.651-.111.764-.231.944-.932l.941-3.677c.064-.212.091-.25.839-.379s.824-.075.869.184c.324,1.885.488,3.029.808,4.882s.546,2.987.872,4.874c.045.26-.009.336-.757.465s-.786.1-.917-.077l-2.116-3.15c-.406-.6-.552-.676-1.2-.564l-2.406.414,1.512,8.781c.057.325.139.411.469.387l2.12-.131c.2,0,.283.085.384.671S2158.363,941.454,2158.168,941.488Z" fill="#5667eb" stroke="#5667eb" stroke-width="1"/>
            <path id="Path_63" data-name="Path 63" d="M2174,935.529c-.8,2.727-2.662,4.46-5.061,4.686a4.342,4.342,0,0,1-4.7-4.2,4.028,4.028,0,0,1,1.948-4.293,30.668,30.668,0,0,1,6.918-2.906l-.1-1.052c-.224-2.365-1.082-3.742-2.331-3.625-.328.031-.45.143-.476.575l-.081,1.6c-.105,2.4-1.38,3.644-3.22,3.817a1.808,1.808,0,0,1-2.112-1.657c-.2-2.1,3.572-5.706,8.6-6.18,4.468-.421,6.737,1.155,7.038,4.341l.57,6.045c.247,2.628.779,2.644,1.61,1.969.093-.074.123-.11.188-.117.3-.028.857.648.876.846.016.164-.1.308-.282.524l-.119.143c-1.786,2.158-3.121,3.112-4.731,3.263C2176.6,939.493,2175.1,938.309,2174,935.529Zm-.31-.469-.219-2.332a2.258,2.258,0,0,0-.845-1.578,2.022,2.022,0,0,0-1.341-.5c-.656.062-.915.484-.822,1.47.174,1.84,1.573,3.332,2.658,3.229A.766.766,0,0,0,2173.7,935.06Z" fill="#5667eb" stroke="#5667eb" stroke-width="1"/>
            <path id="Path_64" data-name="Path 64" d="M2184.8,932.259c.626-.013.726.051.831.313a30.122,30.122,0,0,0,1.831,3.822,2.347,2.347,0,0,0,2.3,1.205c1.451-.03,2.293-.774,2.267-1.995-.025-1.187-.669-1.966-3.025-2.609-4.05-1.1-5.079-2.928-5.14-5.765-.069-3.266,2.811-5.968,8.188-6.082a28.248,28.248,0,0,1,3.669.219c.661.085.728.149.743.809l.083,3.926c.006.264-.059.331-.686.345s-.727-.051-.832-.313l-1.078-2.585a1.9,1.9,0,0,0-2.006-1.21c-1.121.023-1.97.5-1.943,1.724.023,1.088.562,1.638,2.79,2.383,3.756,1.24,4.985,3.161,5.038,5.668.082,3.86-2.9,6.563-8.175,6.676a15.671,15.671,0,0,1-5.063-.652c-.664-.183-.732-.248-.746-.908-.026-1.221.1-3.1.232-4.625C2184.113,932.34,2184.211,932.272,2184.8,932.259Z" fill="#5667eb" stroke="#5667eb" stroke-width="1"/>
            <path id="Path_65" data-name="Path 65" d="M2221.225,938.623c-.028.592-.1.688-.3.679-.758-.034-2.89-.362-5.3-.471s-4.361.034-5.119,0c-.2-.009-.259-.111-.232-.7s.1-.657.3-.713l.9-.191c.334-.084.4-.113.417-.443l.293-6.493c.14-3.065-.536-4.186-2.744-4.285a2.376,2.376,0,0,0-.729.065l-.479,10.547c-.015.33.049.365.374.479l.88.271c.2.075.257.144.231.737s-.1.69-.295.681c-.759-.034-2.659-.352-5.066-.461s-4.591.022-5.349-.012c-.2-.009-.26-.111-.233-.7s.1-.689.3-.713l1.131-.18c.332-.051.4-.114.416-.444l.771-16.973c.014-.33-.05-.366-.376-.447l-1.113-.253c-.2-.042-.259-.11-.234-.637.022-.495.091-.558.292-.611a42.758,42.758,0,0,0,8.478-4.173.442.442,0,0,1,.269-.086c.23.01.845.3.834.533-.025.56-.391,2.789-.574,6.844l-.208,4.581a6.548,6.548,0,0,1,5.824-3.171c3.461.157,5.509,2.331,5.348,5.89l-.425,9.361c-.015.329.048.4.375.479l1.109.281C2221.189,937.927,2221.251,938.029,2221.225,938.623Z" fill="#5667eb" stroke="#5667eb" stroke-width="1"/>
            <path id="Path_66" data-name="Path 66" d="M2221.565,938.954c.077-.589.155-.679.355-.687l1.143-.085c.335-.023.41-.08.452-.407l1.111-8.608c.042-.328-.019-.369-.338-.477l-1.087-.339c-.192-.057-.25-.132-.181-.655.063-.491.136-.548.341-.59a42.784,42.784,0,0,0,8.8-3.455.436.436,0,0,1,.275-.064c.229.029.817.371.787.6-.072.557-.621,2.748-1.141,6.775l-1.006,7.789c-.042.328.015.4.333.509l1.084.372c.192.059.245.165.169.754s-.154.679-.35.654c-.753-.1-2.851-.6-5.241-.909s-4.612-.363-5.332-.457C2221.542,939.649,2221.489,939.543,2221.565,938.954Zm5.033-21.446a3.795,3.795,0,1,1,3.277,4.25A3.695,3.695,0,0,1,2226.6,917.508Z" fill="#5667eb" stroke="#5667eb" stroke-width="1"/>
            <path id="Path_67" data-name="Path 67" d="M2247.228,926.476c5.612,1.213,8.8,5.211,7.669,10.437-1.185,5.483-6.03,7.745-12,6.455-5.613-1.213-8.8-5.211-7.67-10.437C2236.415,927.448,2241.26,925.186,2247.228,926.476Zm-3.062,15.41a1.346,1.346,0,0,0,.9.7c.644.139,1.284-.162,1.653-1.871.732-3.387.334-11.07-.754-12.757a1.345,1.345,0,0,0-.9-.7c-.645-.139-1.284.162-1.654,1.871C2242.68,932.516,2243.079,940.2,2244.166,941.886Z" fill="#5667eb" stroke="#5667eb" stroke-width="1"/>
            <path id="Path_68" data-name="Path 68" d="M2275.218,951.982c-.192.563-.285.635-.473.571-.719-.244-2.676-1.153-4.957-1.928s-4.2-1.183-4.918-1.427c-.187-.065-.218-.179-.027-.741s.275-.6.483-.6l.919.068c.344.012.417,0,.524-.31l2.091-6.156c.989-2.907.652-4.171-1.442-4.883a2.41,2.41,0,0,0-.72-.14l-3.4,10c-.107.313-.055.364.226.565l.769.506c.167.126.208.21.017.772s-.286.635-.473.571c-.719-.244-2.457-1.079-4.738-1.854s-4.418-1.258-5.137-1.5c-.188-.064-.218-.179-.027-.741s.286-.635.483-.6l1.138.143c.333.044.417,0,.523-.31l2.793-8.219c.106-.312.055-.365-.237-.534l-1-.546c-.178-.1-.219-.178-.049-.678.159-.469.243-.51.452-.512a37.294,37.294,0,0,0,8.966-1.764.447.447,0,0,1,.281-.009c.219.075.728.527.653.746-.17.5-.645,1.489-1.282,3.364a6.594,6.594,0,0,1,6.847-1.787c3.281,1.115,4.643,3.774,3.5,7.149l-3.016,8.875c-.106.313-.065.4.227.565l.987.58C2275.379,951.3,2275.409,951.42,2275.218,951.982Z" fill="#5667eb" stroke="#5667eb" stroke-width="1"/>
          </g>
        </g>
        <g id="Group_24" data-name="Group 24">
          <g id="Group_23" data-name="Group 23">
            <path id="Path_69" data-name="Path 69" d="M1610.174,963.479c-.733.2-3.311.649-6.594,1.529-2.645.709-5.773,1.788-6.507,1.984-.191.051-.28-.028-.434-.6s-.116-.686.067-.769l1.981-.77c.309-.117.347-.23.262-.549l-5.2-19.412c-.085-.319-.166-.366-.485-.28l-.127.034a17.584,17.584,0,0,0-2.917,1.226c-.6.3-.7.461-.894,1.128-.58,2.172-.926,3.425-1.674,6.12-.09.3-.1.37-.36.438-.511.137-1.425.04-1.493-.215-.4-1.5-.46-7.324-.455-9.854.011-.344.6-.706,1.011-.817.191-.051.281.027.419.161.456.425.911.848,1.349,1.21.26.2.3.226.564.19,1.882-.368,2.688-.55,4.09-.926l9.277-2.486c2.678-.718,4.008-1.108,5.822-1.731.246-.1.27-.141.393-.448.2-.532.381-1.127.563-1.722.053-.186.091-.3.282-.349.414-.111,1.2-.117,1.285.2a96.9,96.9,0,0,1,2.053,9.7c.036.264-.042.354-.775.55s-.846.158-1.01-.07c-1.527-2.256-2-3.12-3.3-4.787-.417-.537-.666-.573-1.338-.531a21.847,21.847,0,0,0-3.617.527l-.127.034c-.319.085-.365.166-.28.484l5.2,19.413c.085.319.175.4.5.343l2.1-.323c.2-.02.289.06.443.633S1610.365,963.428,1610.174,963.479Z" fill="#5667eb" stroke="#5667eb" stroke-width="1"/>
            <path id="Path_70" data-name="Path 70" d="M1638.822,954.585c.164.571.128.684-.062.739-.73.21-2.856.579-5.171,1.244s-4.124,1.425-4.854,1.635c-.19.054-.281-.023-.445-.594s-.118-.652.054-.77l.793-.468c.29-.187.343-.237.253-.554l-1.8-6.25c-.847-2.95-1.846-3.8-3.971-3.186a2.449,2.449,0,0,0-.671.3l2.915,10.152c.091.317.164.331.509.335l.92-.025c.209.009.29.055.454.626s.128.685-.063.74c-.729.209-2.632.515-4.949,1.18s-4.345,1.488-5.075,1.7c-.19.055-.281-.022-.445-.592s-.128-.685.053-.772l1.015-.531c.3-.154.345-.236.253-.554l-4.691-16.337c-.091-.317-.163-.331-.5-.3l-1.133.116c-.2.022-.281-.023-.427-.53-.137-.477-.092-.558.08-.672a42.867,42.867,0,0,0,6.706-6.664.431.431,0,0,1,.226-.168c.222-.064.9.016.962.239.155.539.52,2.768,1.64,6.671l1.267,4.409a6.554,6.554,0,0,1,4.509-4.866c3.331-.956,5.966.45,6.951,3.877l2.587,9.009c.091.317.173.362.508.334l1.142-.087C1638.567,953.936,1638.658,954.013,1638.822,954.585Z" fill="#5667eb" stroke="#5667eb" stroke-width="1"/>
            <path id="Path_71" data-name="Path 71" d="M1644.477,942.917a10.462,10.462,0,0,0,3.336,3.39,4.262,4.262,0,0,0,3.633.637,4.594,4.594,0,0,0,2.724-2.158c.216-.333,1.179.051,1.14.4a9.546,9.546,0,0,1-6.835,7.712c-4.739,1.312-9.293-.919-10.685-5.943-1.417-5.12,1.488-9.587,7.148-11.155,4.739-1.311,7.949.265,8.793,3.318a3.444,3.444,0,0,1,.166.843.343.343,0,0,1-.289.321C1651.132,941.108,1647.524,942.175,1644.477,942.917Zm1.945-4.476c-.335-1.209-1.02-1.7-1.91-1.457-.986.272-1.725,1.436-1.2,3.344a11.4,11.4,0,0,0,.778,1.942l.982-.409C1646.494,941.3,1646.871,940.062,1646.422,938.441Z" fill="#5667eb" stroke="#5667eb" stroke-width="1"/>
          </g>
        </g>
        <g id="Group_26" data-name="Group 26">
          <g id="Group_25" data-name="Group 25">
            <path id="Path_72" data-name="Path 72" d="M1763.1,915.183a40.613,40.613,0,0,1,6.81.976c.652.145.711.249.763.914a46.641,46.641,0,0,1,.072,6.49c-.018.264-.155.319-.912.267s-.851-.126-.931-.4a14.666,14.666,0,0,0-2.692-4.986,5.326,5.326,0,0,0-4.134-1.879c-3.324-.234-6.212,1.778-6.578,6.979-.383,5.43,1.014,10.954,3.187,13.455a3.76,3.76,0,0,0,2.742,1.45,4.846,4.846,0,0,0,3.607-1.433,17.259,17.259,0,0,0,3.739-5.656c.118-.256.221-.314.978-.262s.884.129.865.391c-.071,1.02-.83,4.738-1.455,7.506-.144.65-.251.742-.916.8a52.268,52.268,0,0,1-8-.068c-8.919-.629-14.719-5.634-14.185-13.205C1746.622,918.52,1754.639,914.587,1763.1,915.183Z" fill="#5667eb" stroke="#5667eb" stroke-width="1"/>
            <path id="Path_73" data-name="Path 73" d="M1784.522,925.091c5.668.914,9.064,4.737,8.213,10.014-.892,5.538-5.609,8.054-11.635,7.082-5.669-.913-9.064-4.735-8.214-10.013C1773.778,926.636,1778.495,924.121,1784.522,925.091Zm-2.238,15.549a1.35,1.35,0,0,0,.932.652c.651.1,1.273-.23,1.552-1.956.55-3.42-.255-11.071-1.431-12.7a1.352,1.352,0,0,0-.931-.651c-.651-.1-1.273.229-1.551,1.956C1780.3,931.364,1781.109,939.014,1782.284,940.64Z" fill="#5667eb" stroke="#5667eb" stroke-width="1"/>
            <path id="Path_74" data-name="Path 74" d="M1794.9,937.954c.609.152.689.241.72.52a30.074,30.074,0,0,0,.758,4.171,2.35,2.35,0,0,0,1.9,1.771c1.408.353,2.417-.143,2.714-1.327.289-1.153-.126-2.074-2.23-3.316-3.618-2.132-4.128-4.165-3.438-6.918.795-3.17,4.286-5.016,9.5-3.708a28.417,28.417,0,0,1,3.482,1.179c.616.257.664.337.5.977l-.956,3.81c-.063.257-.143.305-.752.152s-.688-.241-.719-.521l-.359-2.779a1.9,1.9,0,0,0-1.616-1.7c-1.088-.272-2.033-.033-2.33,1.152-.265,1.056.111,1.729,2.063,3.035,3.3,2.187,3.975,4.365,3.366,6.8-.94,3.746-4.527,5.568-9.649,4.284a15.733,15.733,0,0,1-4.714-1.964c-.591-.353-.639-.433-.479-1.073.3-1.185.915-2.969,1.444-4.4C1794.211,937.849,1794.323,937.809,1794.9,937.954Z" fill="#5667eb" stroke="#5667eb" stroke-width="1"/>
            <path id="Path_75" data-name="Path 75" d="M1819.737,936.158l-2.066,6.2c-.971,2.912-.429,3.893.918,4.342a3.742,3.742,0,0,0,.846.073c.344.114.71.793.479,1.065a6.78,6.78,0,0,1-7.2,1.982c-3.287-1.1-4.311-3.768-3.184-7.149l2.861-8.58c.1-.312.083-.354-.241-.532l-1.075-.532c-.209-.1-.219-.178-.042-.71s.282-.637.481-.6a13.429,13.429,0,0,0,8.443-1.639c.251-.126.3-.178.8-.011s.585.23.543.459a37.484,37.484,0,0,1-.971,3.747l3.549,1.149c.312.1.386.3.1,1.147s-.438.9-.752.794C1822.138,936.993,1820.791,936.545,1819.737,936.158Z" fill="#5667eb" stroke="#5667eb" stroke-width="1"/>
          </g>
        </g>
        <g id="Group_28" data-name="Group 28">
          <g id="Group_27" data-name="Group 27">
            <path id="Path_76" data-name="Path 76" d="M1891.321,968.644c5.294,2.223,7.694,6.737,5.625,11.666-2.172,5.173-7.348,6.507-12.976,4.144-5.295-2.222-7.695-6.737-5.625-11.665C1880.516,967.616,1885.692,966.282,1891.321,968.644Zm-5.836,14.585a1.349,1.349,0,0,0,.752.853c.609.256,1.292.077,1.969-1.535,1.341-3.2,2.358-10.82,1.6-12.678a1.349,1.349,0,0,0-.752-.852c-.609-.256-1.292-.077-1.969,1.535C1885.744,973.747,1884.727,981.372,1885.485,983.229Z" fill="#5667eb" stroke="#5667eb" stroke-width="1"/>
            <path id="Path_77" data-name="Path 77" d="M1920.181,973.041a2.655,2.655,0,0,1-3.413,1.644c-.858-.242-1.463-.892-1.763-2.384l-.472-2.464c-.207-1.087-.471-1.368-.885-1.484-.793-.224-1.684.622-2.374,3.069l-1.084,3.843c.859.242,2.075.551,3.06.824.317.09.4.285.158,1.143s-.4.917-.714.831c-1.016-.286-2.065-.582-3.041-.891l-3.475,12.326c-.089.318-.034.367.265.52l1.017.528c.182.085.219.2.058.77s-.252.649-.443.6c-.73-.206-2.733-1.011-5.052-1.665s-4.478-1.023-5.21-1.229c-.19-.054-.226-.167-.065-.738s.251-.649.451-.628l1.143.082c.336.026.408.013.5-.3l3.376-11.977c.09-.318.076-.39-.265-.521l-1.606-.628c-.214-.094-.219-.2-.067-.738.161-.572.252-.649.452-.624l2.086.383.028-.1c1.477-5.242,7.346-7.085,13.256-5.419C1918.832,968.58,1920.754,971.007,1920.181,973.041Z" fill="#5667eb" stroke="#5667eb" stroke-width="1"/>
          </g>
        </g>
      </g>
      <g id="Group_31" data-name="Group 31">
        <g id="Group_30" data-name="Group 30">
          <path id="Path_78" data-name="Path 78" d="M2007.388,991.441c-.742.163-3.337.5-6.657,1.231-2.674.591-5.2,1.385-5.944,1.549-.193.042-.279-.04-.407-.62s-.085-.691.1-.765l1.369-.539c.307-.135.358-.214.287-.537l-4.309-19.529c-.071-.322-.15-.372-.486-.366l-1.468.09c-.2.009-.287-.073-.415-.653s-.084-.691.109-.735c.742-.164,4.143-.678,10.039-1.979l.678-.149c3.512-.775,8.272-2.028,10.656-2.555.645-.141.763-.066.9.579a62.009,62.009,0,0,1,1.152,7.519c.024.266-.058.351-.8.515s-.852.12-1.006-.117c-1.424-2.323-1.907-3.128-3.067-4.867a1.1,1.1,0,0,0-1.28-.595c-1.661.129-5.038.6-6.263.875l-.129.028c-.322.071-.372.149-.3.472l2.055,9.313,2.385-.526c.644-.142.752-.267.9-.976l.769-3.718c.053-.214.079-.254.82-.418s.82-.113.877.147c.412,1.868.629,3,1.034,4.84s.687,2.958,1.1,4.826c.056.258.007.337-.735.5s-.78.139-.919-.033l-2.261-3.05c-.433-.58-.583-.649-1.228-.507l-2.385.526,1.92,8.7c.072.322.158.4.487.366l2.112-.23c.2-.01.286.072.414.652S2007.581,991.4,2007.388,991.441Z" fill="#5667eb" stroke="#5667eb" stroke-width="1"/>
          <path id="Path_79" data-name="Path 79" d="M2023.534,983.136c-.256,2.832-1.74,4.894-4.048,5.583a4.342,4.342,0,0,1-5.432-3.2,4.029,4.029,0,0,1,1.073-4.591,30.738,30.738,0,0,1,6.219-4.2l-.3-1.012c-.68-2.276-1.791-3.46-2.992-3.1-.317.1-.414.227-.356.657l.233,1.584c.364,2.371-.643,3.843-2.413,4.371a1.808,1.808,0,0,1-2.4-1.213c-.6-2.023,2.391-6.293,7.228-7.738,4.3-1.284,6.833-.182,7.75,2.885l1.737,5.817c.756,2.529,1.28,2.441,1.964,1.617.076-.091.1-.132.162-.151.284-.085.966.469,1.022.659.048.157-.041.322-.173.568l-.089.165c-1.33,2.463-2.454,3.66-4,4.123C2026.853,986.519,2025.146,985.651,2023.534,983.136Zm-.394-.4-.67-2.245a2.249,2.249,0,0,0-1.137-1.382,2.011,2.011,0,0,0-1.412-.232c-.633.188-.8.653-.521,1.6.53,1.771,2.194,2.961,3.237,2.65A.775.775,0,0,0,2023.14,982.738Z" fill="#5667eb" stroke="#5667eb" stroke-width="1"/>
          <path id="Path_80" data-name="Path 80" d="M2033.779,977.339c.591-.211.706-.183.888.032a30.385,30.385,0,0,0,2.95,3.044,2.352,2.352,0,0,0,2.568.412c1.366-.49,1.928-1.463,1.516-2.613-.4-1.119-1.258-1.652-3.7-1.514-4.19.241-5.746-1.165-6.7-3.837-1.1-3.075.77-6.552,5.835-8.367a27.976,27.976,0,0,1,3.548-.957c.655-.13.739-.09.963.531l1.325,3.7c.089.249.049.333-.541.545s-.706.183-.888-.033l-1.844-2.109a1.9,1.9,0,0,0-2.287-.513c-1.056.379-1.708,1.1-1.3,2.253.367,1.025,1.054,1.375,3.4,1.375,3.956-.017,5.731,1.416,6.578,3.776,1.3,3.635-.664,7.146-5.635,8.928a15.717,15.717,0,0,1-5.01.989c-.687.036-.772,0-.995-.625-.412-1.149-.892-2.975-1.249-4.46C2033.149,977.634,2033.22,977.54,2033.779,977.339Z" fill="#5667eb" stroke="#5667eb" stroke-width="1"/>
          <path id="Path_81" data-name="Path 81" d="M2052.29,961.3l2.387,6.082c1.121,2.857,2.166,3.262,3.486,2.744.4-.157.542-.425.7-.486.338-.133,1.053.154,1.051.509a6.78,6.78,0,0,1-4.256,6.137c-3.225,1.265-5.722-.129-7.024-3.446l-3.3-8.417c-.121-.307-.163-.326-.525-.254l-1.166.28c-.228.054-.282,0-.488-.519s-.191-.669-.019-.771a13.415,13.415,0,0,0,5.43-6.668c.112-.257.119-.33.61-.524s.6-.2.711.005a37.318,37.318,0,0,1,1.656,3.5l3.458-1.392c.308-.121.49-.016.817.814s.238.97-.069,1.09C2054.667,960.4,2053.346,960.921,2052.29,961.3Z" fill="#5667eb" stroke="#5667eb" stroke-width="1"/>
        </g>
      </g>
    </g>
  </g>
</svg>
